<?xml version="1.0" encoding="UTF-8"?>
<!DOCTYPE svg PUBLIC "-//W3C//DTD SVG 1.1//EN" "http://www.w3.org/Graphics/SVG/1.1/DTD/svg11.dtd">
<svg xmlns="http://www.w3.org/2000/svg" version="1.1" width="500px" height="500px" style="shape-rendering:geometricPrecision; text-rendering:geometricPrecision; image-rendering:optimizeQuality; fill-rule:evenodd; clip-rule:evenodd" xmlns:xlink="http://www.w3.org/1999/xlink">
<g><path style="opacity:0.971" fill="#b61a68" d="M 226.5,76.5 C 226.5,76.8333 226.5,77.1667 226.5,77.5C 220.131,77.347 213.797,77.6803 207.5,78.5C 207.918,77.7784 208.584,77.2784 209.5,77C 215.157,76.5006 220.824,76.3339 226.5,76.5 Z"/></g>
<g><path style="opacity:0.494" fill="#6b4495" d="M 226.5,77.5 C 226.5,77.1667 226.5,76.8333 226.5,76.5C 230.102,76.6924 233.102,78.0257 235.5,80.5C 234.391,80.4431 233.391,80.1098 232.5,79.5C 230.5,78.8333 228.5,78.1667 226.5,77.5 Z"/></g>
<g><path style="opacity:1" fill="#de0c53" d="M 226.5,77.5 C 228.5,78.1667 230.5,78.8333 232.5,79.5C 234.313,82.9292 234.813,86.5959 234,90.5C 229.847,97.8104 226.014,105.144 222.5,112.5C 222.975,109.918 222.308,107.918 220.5,106.5C 217.36,105.359 214.027,105.192 210.5,106C 204.218,107.325 197.885,108.325 191.5,109C 190.944,109.383 190.611,109.883 190.5,110.5C 182.392,110.976 174.392,111.976 166.5,113.5C 162.84,113.159 159.507,113.825 156.5,115.5C 151.728,115.705 147.062,116.372 142.5,117.5C 139.447,117.111 136.78,117.777 134.5,119.5C 130.785,119.423 127.119,119.756 123.5,120.5C 122.631,111.084 121.298,101.75 119.5,92.5C 124.793,91.5535 130.126,90.8869 135.5,90.5C 142.461,89.9889 149.127,88.6556 155.5,86.5C 172.753,83.4505 190.086,80.7838 207.5,78.5C 213.797,77.6803 220.131,77.347 226.5,77.5 Z"/></g>
<g><path style="opacity:0.431" fill="#5d388c" d="M 226.5,76.5 C 220.824,76.3339 215.157,76.5006 209.5,77C 208.584,77.2784 207.918,77.7784 207.5,78.5C 190.086,80.7838 172.753,83.4505 155.5,86.5C 149.858,87.3536 144.191,88.0203 138.5,88.5C 165.321,83.4746 192.321,78.8079 219.5,74.5C 221.982,75.0671 224.316,75.7337 226.5,76.5 Z"/></g>
<g><path style="opacity:0.145" fill="#5f4a8e" d="M 235.5,80.5 C 237.027,80.427 238.027,81.0937 238.5,82.5C 236.973,82.573 235.973,81.9063 235.5,80.5 Z"/></g>
<g><path style="opacity:0.055" fill="#5e4a97" d="M 238.5,82.5 C 241.5,83.5 243.5,85.5 244.5,88.5C 242.167,86.8333 240.167,84.8333 238.5,82.5 Z"/></g>
<g><path style="opacity:1" fill="#fd5079" d="M 232.5,79.5 C 233.391,80.1098 234.391,80.4431 235.5,80.5C 235.973,81.9063 236.973,82.573 238.5,82.5C 240.167,84.8333 242.167,86.8333 244.5,88.5C 244.738,90.4044 245.738,91.7377 247.5,92.5C 247.992,94.8185 248.992,96.8185 250.5,98.5C 252.169,106.639 251.669,114.639 249,122.5C 235.829,145.162 223.329,168.162 211.5,191.5C 211.672,192.492 211.338,193.158 210.5,193.5C 208.926,194.984 207.593,196.651 206.5,198.5C 205.79,200.893 205.123,203.393 204.5,206C 205.448,206.483 206.448,206.649 207.5,206.5C 201.254,208.968 194.754,210.968 188,212.5C 184.403,212.116 181.236,210.783 178.5,208.5C 177.393,203.919 177.227,199.252 178,194.5C 180.124,189.924 181.957,185.257 183.5,180.5C 185.891,178.065 187.558,175.065 188.5,171.5C 190.539,170.089 191.539,168.089 191.5,165.5C 192.906,165.027 193.573,164.027 193.5,162.5C 195.104,161.713 195.771,160.38 195.5,158.5C 198.518,157.145 199.851,154.812 199.5,151.5C 201.588,149.664 202.921,147.331 203.5,144.5C 205.559,142.74 206.892,140.406 207.5,137.5C 207.328,136.508 207.662,135.842 208.5,135.5C 210.074,134.016 211.407,132.349 212.5,130.5C 214.341,128.151 215.674,125.485 216.5,122.5C 217.773,120.287 218.773,117.954 219.5,115.5C 220.728,114.694 221.728,113.694 222.5,112.5C 226.014,105.144 229.847,97.8104 234,90.5C 234.813,86.5959 234.313,82.9292 232.5,79.5 Z"/></g>
<g><path style="opacity:1" fill="#b61c67" d="M 155.5,86.5 C 149.127,88.6556 142.461,89.9889 135.5,90.5C 136.5,89.8333 137.5,89.1667 138.5,88.5C 144.191,88.0203 149.858,87.3536 155.5,86.5 Z"/></g>
<g><path style="opacity:0.663" fill="#844e93" d="M 244.5,88.5 C 246.262,89.2623 247.262,90.5956 247.5,92.5C 245.738,91.7377 244.738,90.4044 244.5,88.5 Z"/></g>
<g><path style="opacity:0.529" fill="#5d368c" d="M 138.5,88.5 C 137.5,89.1667 136.5,89.8333 135.5,90.5C 130.126,90.8869 124.793,91.5535 119.5,92.5C 121.298,101.75 122.631,111.084 123.5,120.5C 127.119,119.756 130.785,119.423 134.5,119.5C 135.5,119.5 136.5,119.5 137.5,119.5C 132.75,121.031 127.75,121.698 122.5,121.5C 121.39,112.064 119.723,102.73 117.5,93.5C 118.09,92.2011 119.09,91.3678 120.5,91C 126.476,89.9319 132.476,89.0986 138.5,88.5 Z"/></g>
<g><path style="opacity:0.231" fill="#524696" d="M 247.5,92.5 C 249.539,93.911 250.539,95.911 250.5,98.5C 248.992,96.8185 247.992,94.8185 247.5,92.5 Z"/></g>
<g><path style="opacity:0.349" fill="#5b388d" d="M 220.5,106.5 C 210.505,107.832 200.505,109.166 190.5,110.5C 190.611,109.883 190.944,109.383 191.5,109C 197.885,108.325 204.218,107.325 210.5,106C 214.027,105.192 217.36,105.359 220.5,106.5 Z"/></g>
<g><path style="opacity:0.333" fill="#5e4290" d="M 220.5,106.5 C 222.308,107.918 222.975,109.918 222.5,112.5C 221.728,113.694 220.728,114.694 219.5,115.5C 221.318,112.596 221.651,109.596 220.5,106.5 Z"/></g>
<g><path style="opacity:0.561" fill="#9c2271" d="M 166.5,113.5 C 163.373,114.581 160.04,115.247 156.5,115.5C 159.507,113.825 162.84,113.159 166.5,113.5 Z"/></g>
<g><path style="opacity:0.208" fill="#543b90" d="M 190.5,110.5 C 173.408,114.127 156.074,117.127 138.5,119.5C 139.833,118.833 141.167,118.167 142.5,117.5C 147.062,116.372 151.728,115.705 156.5,115.5C 160.04,115.247 163.373,114.581 166.5,113.5C 174.392,111.976 182.392,110.976 190.5,110.5 Z"/></g>
<g><path style="opacity:0.424" fill="#8a2d7b" d="M 142.5,117.5 C 141.167,118.167 139.833,118.833 138.5,119.5C 138.167,119.5 137.833,119.5 137.5,119.5C 136.5,119.5 135.5,119.5 134.5,119.5C 136.78,117.777 139.447,117.111 142.5,117.5 Z"/></g>
<g><path style="opacity:0.314" fill="#564196" d="M 219.5,115.5 C 218.773,117.954 217.773,120.287 216.5,122.5C 216.167,122.5 215.833,122.5 215.5,122.5C 216.079,119.669 217.412,117.336 219.5,115.5 Z"/></g>
<g><path style="opacity:1" fill="#b35591" d="M 215.5,122.5 C 215.833,122.5 216.167,122.5 216.5,122.5C 215.674,125.485 214.341,128.151 212.5,130.5C 212.5,129.833 212.5,129.167 212.5,128.5C 212.992,126.181 213.992,124.181 215.5,122.5 Z"/></g>
<g><path style="opacity:0.243" fill="#6e4c94" d="M 250.5,98.5 C 253.97,106.598 253.804,114.932 250,123.5C 237.392,146.391 224.559,169.058 211.5,191.5C 223.329,168.162 235.829,145.162 249,122.5C 251.669,114.639 252.169,106.639 250.5,98.5 Z"/></g>
<g><path style="opacity:0.298" fill="#614796" d="M 212.5,128.5 C 212.5,129.167 212.5,129.833 212.5,130.5C 211.407,132.349 210.074,134.016 208.5,135.5C 209.079,132.669 210.412,130.336 212.5,128.5 Z"/></g>
<g><path style="opacity:0.988" fill="#915093" d="M 207.5,137.5 C 206.892,140.406 205.559,142.74 203.5,144.5C 204.079,141.669 205.412,139.336 207.5,137.5 Z"/></g>
<g><path style="opacity:1" fill="#023a8b" d="M 356.5,105.5 C 357.164,107.81 357.497,110.31 357.5,113C 355.561,136.895 353.061,160.728 350,184.5C 349.371,188.006 348.371,191.34 347,194.5C 348.3,164.847 351.467,135.18 356.5,105.5 Z"/></g>
<g><path style="opacity:0.365" fill="#634895" d="M 203.5,144.5 C 202.921,147.331 201.588,149.664 199.5,151.5C 200.079,148.669 201.412,146.336 203.5,144.5 Z"/></g>
<g><path style="opacity:0.639" fill="#8b5297" d="M 199.5,151.5 C 199.851,154.812 198.518,157.145 195.5,158.5C 196.584,155.996 197.917,153.663 199.5,151.5 Z"/></g>
<g><path style="opacity:0.518" fill="#6e4b95" d="M 195.5,158.5 C 195.771,160.38 195.104,161.713 193.5,162.5C 193.66,160.847 194.326,159.514 195.5,158.5 Z"/></g>
<g><path style="opacity:0.849" fill="#023a8c" d="M 412.5,146.5 C 413.497,146.47 414.164,146.97 414.5,148C 412.602,164.154 409.436,179.988 405,195.5C 405.362,178.854 407.862,162.52 412.5,146.5 Z"/></g>
<g><path style="opacity:0.997" fill="#023a8b" d="M 107.5,114.5 C 109.64,116.7 111.14,119.367 112,122.5C 120.604,146.646 128.604,170.979 136,195.5C 136.667,197.167 136.667,198.833 136,200.5C 124.808,172.424 115.308,143.757 107.5,114.5 Z"/></g>
<g><path style="opacity:0.286" fill="#524495" d="M 193.5,162.5 C 193.573,164.027 192.906,165.027 191.5,165.5C 191.427,163.973 192.094,162.973 193.5,162.5 Z"/></g>
<g><path style="opacity:0.447" fill="#6b4993" d="M 191.5,165.5 C 191.539,168.089 190.539,170.089 188.5,171.5C 188.992,169.181 189.992,167.181 191.5,165.5 Z"/></g>
<g><path style="opacity:0.392" fill="#024299" d="M 154.5,155.5 C 158.863,169.934 162.863,184.601 166.5,199.5C 165.253,202.329 163.753,204.995 162,207.5C 160.978,206.646 160.145,205.646 159.5,204.5C 161.437,202.851 162.437,200.685 162.5,198C 159.454,183.888 156.787,169.722 154.5,155.5 Z"/></g>
<g><path style="opacity:0.353" fill="#734b94" d="M 188.5,171.5 C 187.558,175.065 185.891,178.065 183.5,180.5C 184.41,177.008 186.076,174.008 188.5,171.5 Z"/></g>
<g><path style="opacity:1" fill="#073782" d="M 360.5,209.5 C 359.5,209.5 358.5,209.5 357.5,209.5C 357.5,210.5 357.5,211.5 357.5,212.5C 356.833,210.833 356.167,209.167 355.5,207.5C 355.167,207.5 354.833,207.5 354.5,207.5C 352.973,207.573 351.973,206.906 351.5,205.5C 352.833,205.5 354.167,205.5 355.5,205.5C 358.479,180.105 363.313,155.105 370,130.5C 371.023,131.6 371.523,132.933 371.5,134.5C 367.991,159.533 364.324,184.533 360.5,209.5 Z"/></g>
<g><path style="opacity:0.973" fill="#7b4a94" d="M 183.5,180.5 C 181.957,185.257 180.124,189.924 178,194.5C 177.227,199.252 177.393,203.919 178.5,208.5C 178.5,209.833 178.5,211.167 178.5,212.5C 174.194,201.008 175.861,190.341 183.5,180.5 Z"/></g>
<g><path style="opacity:1" fill="#de0d53" d="M 287.5,191.5 C 288.242,201.278 285.909,210.278 280.5,218.5C 280.043,219.298 279.376,219.631 278.5,219.5C 276.593,216.668 273.927,215.834 270.5,217C 252.763,222.798 235.097,228.632 217.5,234.5C 217.167,234.5 216.833,234.5 216.5,234.5C 215.593,230.776 213.927,227.443 211.5,224.5C 210.893,224.624 210.56,224.957 210.5,225.5C 205.387,226.427 200.387,227.76 195.5,229.5C 194.504,229.586 193.671,229.252 193,228.5C 191.617,224.066 189.95,219.732 188,215.5C 186.384,214.199 184.884,214.199 183.5,215.5C 182.609,216.11 181.609,216.443 180.5,216.5C 180.34,214.847 179.674,213.514 178.5,212.5C 178.5,211.167 178.5,209.833 178.5,208.5C 181.236,210.783 184.403,212.116 188,212.5C 194.754,210.968 201.254,208.968 207.5,206.5C 209.415,206.784 211.081,206.451 212.5,205.5C 222.122,203.101 231.456,200.101 240.5,196.5C 249.249,194.313 257.916,191.813 266.5,189C 271.833,188.333 277.167,188.333 282.5,189C 284.315,189.757 285.981,190.59 287.5,191.5 Z"/></g>
<g><path style="opacity:0.592" fill="#5d3e91" d="M 303.5,202.5 C 303.5,202.833 303.5,203.167 303.5,203.5C 300.369,200.871 297.369,198.038 294.5,195C 292.423,193.295 290.09,192.128 287.5,191.5C 285.981,190.59 284.315,189.757 282.5,189C 277.167,188.333 271.833,188.333 266.5,189C 257.916,191.813 249.249,194.313 240.5,196.5C 249.55,192.872 258.883,189.705 268.5,187C 283.086,185.627 294.753,190.794 303.5,202.5 Z"/></g>
<g><path style="opacity:0.675" fill="#958778" d="M 326.5,196.5 C 326.833,197.167 327.167,197.833 327.5,198.5C 325.236,197.781 322.903,197.448 320.5,197.5C 320.5,197.167 320.5,196.833 320.5,196.5C 322.451,195.359 324.451,195.359 326.5,196.5 Z"/></g>
<g><path style="opacity:0.102" fill="#0258b3" d="M 152.5,195.5 C 153.5,195.5 154.5,195.5 155.5,195.5C 155.5,196.833 155.5,198.167 155.5,199.5C 152.046,199.733 151.046,198.4 152.5,195.5 Z"/></g>
<g><path style="opacity:1" fill="#fd5079" d="M 287.5,191.5 C 290.09,192.128 292.423,193.295 294.5,195C 297.369,198.038 300.369,200.871 303.5,203.5C 303.263,204.791 303.596,205.791 304.5,206.5C 305.143,208.076 306.143,209.41 307.5,210.5C 307.76,217.557 307.427,224.557 306.5,231.5C 306.5,231.833 306.5,232.167 306.5,232.5C 304.276,235.807 302.609,239.473 301.5,243.5C 300.5,243.833 299.833,244.5 299.5,245.5C 296.551,251.729 293.885,258.062 291.5,264.5C 288.197,270 285.03,275.667 282,281.5C 281.187,283.436 280.687,285.436 280.5,287.5C 280.672,288.492 280.338,289.158 279.5,289.5C 277.166,291.176 276.166,293.509 276.5,296.5C 273.865,298.339 272.532,301.006 272.5,304.5C 272.672,305.492 272.338,306.158 271.5,306.5C 269.461,307.911 268.461,309.911 268.5,312.5C 266.399,315.248 264.566,318.248 263,321.5C 262.187,323.436 261.687,325.436 261.5,327.5C 259.613,328.768 258.613,330.601 258.5,333C 258.387,334.699 259.053,335.866 260.5,336.5C 260.5,337.167 260.833,337.5 261.5,337.5C 248.586,343.194 238.252,340.194 230.5,328.5C 231.527,324.102 232.86,319.769 234.5,315.5C 234.043,314.702 233.376,314.369 232.5,314.5C 233.765,313.521 235.099,312.521 236.5,311.5C 239.151,304.372 242.651,297.705 247,291.5C 247.899,287.462 249.566,283.795 252,280.5C 253.31,276.93 254.143,273.263 254.5,269.5C 254.5,269.167 254.5,268.833 254.5,268.5C 255.117,268.611 255.617,268.944 256,269.5C 257.372,268.09 258.205,266.423 258.5,264.5C 262.485,259.528 265.151,253.861 266.5,247.5C 268.293,245.574 269.293,243.241 269.5,240.5C 270.885,239.426 272.051,238.093 273,236.5C 273.919,232.482 275.586,228.815 278,225.5C 278.495,223.527 278.662,221.527 278.5,219.5C 279.376,219.631 280.043,219.298 280.5,218.5C 285.909,210.278 288.242,201.278 287.5,191.5 Z"/></g>
<g><path style="opacity:0.443" fill="#606b7d" d="M 326.5,196.5 C 329.397,197.129 332.064,198.129 334.5,199.5C 332.139,199.326 329.806,198.993 327.5,198.5C 327.167,197.833 326.833,197.167 326.5,196.5 Z"/></g>
<g><path style="opacity:0.584" fill="#6b727d" d="M 320.5,196.5 C 320.5,196.833 320.5,197.167 320.5,197.5C 318.007,198.774 315.341,199.44 312.5,199.5C 314.936,198.129 317.603,197.129 320.5,196.5 Z"/></g>
<g><path style="opacity:1" fill="#faaf3b" d="M 320.5,197.5 C 322.903,197.448 325.236,197.781 327.5,198.5C 329.806,198.993 332.139,199.326 334.5,199.5C 334.833,199.5 335.167,199.5 335.5,199.5C 340.348,202.454 345.681,204.454 351.5,205.5C 351.973,206.906 352.973,207.573 354.5,207.5C 354.5,210.167 354.5,212.833 354.5,215.5C 340.579,209.638 326.245,204.971 311.5,201.5C 311.833,200.833 312.167,200.167 312.5,199.5C 315.341,199.44 318.007,198.774 320.5,197.5 Z"/></g>
<g><path style="opacity:1" fill="#03347f" d="M 141.5,237.5 C 139.909,239.633 137.909,241.299 135.5,242.5C 135.167,242.5 134.833,242.5 134.5,242.5C 124.193,217.081 115.36,191.081 108,164.5C 107.333,162.167 107.333,159.833 108,157.5C 119.277,183.663 128.777,210.497 136.5,238C 136.833,238.5 137.167,239 137.5,239.5C 138.622,238.37 139.956,237.703 141.5,237.5 Z"/></g>
<g><path style="opacity:0.745" fill="#797073" d="M 312.5,199.5 C 312.167,200.167 311.833,200.833 311.5,201.5C 308.779,201.963 306.112,202.629 303.5,203.5C 303.5,203.167 303.5,202.833 303.5,202.5C 306.421,201.304 309.421,200.304 312.5,199.5 Z"/></g>
<g><path style="opacity:0.592" fill="#64697b" d="M 335.5,199.5 C 341.265,200.598 346.599,202.598 351.5,205.5C 345.681,204.454 340.348,202.454 335.5,199.5 Z"/></g>
<g><path style="opacity:0.557" fill="#583c8f" d="M 210.5,193.5 C 209.51,196.151 208.51,198.817 207.5,201.5C 207.574,203.739 208.741,204.739 211,204.5C 220.759,201.524 230.592,198.858 240.5,196.5C 231.456,200.101 222.122,203.101 212.5,205.5C 207.094,206.265 205.094,203.931 206.5,198.5C 207.593,196.651 208.926,194.984 210.5,193.5 Z"/></g>
<g><path style="opacity:1" fill="#ec9024" d="M 311.5,201.5 C 326.245,204.971 340.579,209.638 354.5,215.5C 354.5,216.833 354.5,218.167 354.5,219.5C 338.917,213.417 322.917,208.75 306.5,205.5C 305.584,205.543 304.917,205.876 304.5,206.5C 303.596,205.791 303.263,204.791 303.5,203.5C 306.112,202.629 308.779,201.963 311.5,201.5 Z"/></g>
<g><path style="opacity:1" fill="#d65187" d="M 206.5,198.5 C 205.094,203.931 207.094,206.265 212.5,205.5C 211.081,206.451 209.415,206.784 207.5,206.5C 206.448,206.649 205.448,206.483 204.5,206C 205.123,203.393 205.79,200.893 206.5,198.5 Z"/></g>
<g><path style="opacity:1" fill="#fdd47c" d="M 304.5,206.5 C 304.917,205.876 305.584,205.543 306.5,205.5C 322.917,208.75 338.917,213.417 354.5,219.5C 354.5,218.167 354.5,216.833 354.5,215.5C 354.5,212.833 354.5,210.167 354.5,207.5C 354.833,207.5 355.167,207.5 355.5,207.5C 355.185,211.371 355.518,215.038 356.5,218.5C 356.33,219.822 356.663,220.989 357.5,222C 369.392,227.56 379.892,235.06 389,244.5C 391.157,246.817 392.657,249.484 393.5,252.5C 394.029,256.192 393.029,259.358 390.5,262C 383.031,266.379 375.031,269.379 366.5,271C 355.505,271.5 344.505,271.667 333.5,271.5C 326.369,268.101 319.369,264.434 312.5,260.5C 312.611,259.883 312.944,259.383 313.5,259C 320.717,256.591 328.051,254.758 335.5,253.5C 336.738,253.81 336.738,254.31 335.5,255C 331.959,256.44 328.292,257.274 324.5,257.5C 324.323,259.981 325.323,261.814 327.5,263C 334.26,267.288 341.26,267.621 348.5,264C 352.261,261.971 356.095,260.138 360,258.5C 366.079,260.204 372.246,260.704 378.5,260C 380.241,258.38 382.075,256.88 384,255.5C 384.667,254.5 384.667,253.5 384,252.5C 379.473,251.639 374.973,250.639 370.5,249.5C 370.665,246.15 370.498,242.817 370,239.5C 367.718,236.432 364.884,233.932 361.5,232C 343.011,225.613 324.677,226.113 306.5,233.5C 306.5,233.167 306.5,232.833 306.5,232.5C 306.5,232.167 306.5,231.833 306.5,231.5C 316.333,227.889 326,223.889 335.5,219.5C 326.332,215.912 316.999,212.912 307.5,210.5C 306.143,209.41 305.143,208.076 304.5,206.5 Z"/></g>
<g><path style="opacity:0.224" fill="#475a7f" d="M 360.5,209.5 C 362.027,209.427 363.027,210.094 363.5,211.5C 361.973,211.573 360.973,210.906 360.5,209.5 Z"/></g>
<g><path style="opacity:1" fill="#5b433d" d="M 355.5,207.5 C 356.167,209.167 356.833,210.833 357.5,212.5C 357.167,213.833 356.833,215.167 356.5,216.5C 356.5,217.167 356.5,217.833 356.5,218.5C 355.518,215.038 355.185,211.371 355.5,207.5 Z"/></g>
<g><path style="opacity:0.525" fill="#74717a" d="M 363.5,211.5 C 366.331,212.079 368.664,213.412 370.5,215.5C 367.669,214.921 365.336,213.588 363.5,211.5 Z"/></g>
<g><path style="opacity:1" fill="#d07e2e" d="M 307.5,210.5 C 316.999,212.912 326.332,215.912 335.5,219.5C 326,223.889 316.333,227.889 306.5,231.5C 307.427,224.557 307.76,217.557 307.5,210.5 Z"/></g>
<g><path style="opacity:0.173" fill="#523a80" d="M 178.5,212.5 C 179.674,213.514 180.34,214.847 180.5,216.5C 179.833,216.5 179.167,216.5 178.5,216.5C 178.5,215.167 178.5,213.833 178.5,212.5 Z"/></g>
<g><path style="opacity:0.855" fill="#8f8579" d="M 178.5,216.5 C 179.167,216.5 179.833,216.5 180.5,216.5C 178.898,218.074 176.898,218.741 174.5,218.5C 175.514,217.326 176.847,216.66 178.5,216.5 Z"/></g>
<g><path style="opacity:0.831" fill="#858374" d="M 374.5,217.5 C 376.23,218.026 377.564,219.026 378.5,220.5C 376.368,220.446 375.035,219.446 374.5,217.5 Z"/></g>
<g><path style="opacity:1" fill="#d47e2f" d="M 183.5,215.5 C 184.884,214.199 186.384,214.199 188,215.5C 189.95,219.732 191.617,224.066 193,228.5C 193.671,229.252 194.504,229.586 195.5,229.5C 188.296,231.809 180.963,234.143 173.5,236.5C 173.24,235.095 172.907,233.762 172.5,232.5C 175.083,231.372 176.75,229.372 177.5,226.5C 180.136,223.69 182.636,220.69 185,217.5C 185.528,216.184 185.028,215.517 183.5,215.5 Z"/></g>
<g><path style="opacity:0.043" fill="#54617c" d="M 378.5,220.5 C 380.027,220.427 381.027,221.094 381.5,222.5C 379.973,222.573 378.973,221.906 378.5,220.5 Z"/></g>
<g><path style="opacity:0.224" fill="#5b647f" d="M 172.5,219.5 C 170.636,221.014 168.636,222.347 166.5,223.5C 165.833,223.5 165.167,223.5 164.5,223.5C 166.612,221.229 169.279,219.896 172.5,219.5 Z"/></g>
<g><path style="opacity:1" fill="#a58e71" d="M 164.5,223.5 C 165.167,223.5 165.833,223.5 166.5,223.5C 164.316,225.585 161.649,226.585 158.5,226.5C 160.181,224.992 162.181,223.992 164.5,223.5 Z"/></g>
<g><path style="opacity:0.553" fill="#7b7a76" d="M 381.5,222.5 C 383.754,223.124 385.421,224.457 386.5,226.5C 384.205,225.864 382.539,224.531 381.5,222.5 Z"/></g>
<g><path style="opacity:0.58" fill="#646876" d="M 158.5,226.5 C 158.027,227.906 157.027,228.573 155.5,228.5C 155.973,227.094 156.973,226.427 158.5,226.5 Z"/></g>
<g><path style="opacity:0.451" fill="#6b398b" d="M 278.5,219.5 C 278.662,221.527 278.495,223.527 278,225.5C 275.586,228.815 273.919,232.482 273,236.5C 272.051,238.093 270.885,239.426 269.5,240.5C 272.162,234.185 274.829,227.852 277.5,221.5C 277.272,219.603 276.272,218.27 274.5,217.5C 255.591,223.788 236.591,229.788 217.5,235.5C 217.5,235.167 217.5,234.833 217.5,234.5C 235.097,228.632 252.763,222.798 270.5,217C 273.927,215.834 276.593,216.668 278.5,219.5 Z"/></g>
<g><path style="opacity:1" fill="#fdb138" d="M 335.5,253.5 C 337.888,252.651 340.221,251.651 342.5,250.5C 344.411,250.426 345.578,249.426 346,247.5C 346.743,245.559 346.576,243.726 345.5,242C 340.108,239.632 334.442,238.965 328.5,240C 327.429,240.852 326.429,241.685 325.5,242.5C 321.793,240.399 317.793,238.899 313.5,238C 310.761,236.974 308.428,235.474 306.5,233.5C 324.677,226.113 343.011,225.613 361.5,232C 364.884,233.932 367.718,236.432 370,239.5C 370.498,242.817 370.665,246.15 370.5,249.5C 374.973,250.639 379.473,251.639 384,252.5C 384.667,253.5 384.667,254.5 384,255.5C 382.075,256.88 380.241,258.38 378.5,260C 372.246,260.704 366.079,260.204 360,258.5C 356.095,260.138 352.261,261.971 348.5,264C 341.26,267.621 334.26,267.288 327.5,263C 325.323,261.814 324.323,259.981 324.5,257.5C 328.292,257.274 331.959,256.44 335.5,255C 336.738,254.31 336.738,253.81 335.5,253.5 Z"/></g>
<g><path style="opacity:1" fill="#c09b67" d="M 386.5,226.5 C 388.167,227.5 389.5,228.833 390.5,230.5C 387.858,230.512 386.525,229.179 386.5,226.5 Z"/></g>
<g><path style="opacity:0.62" fill="#676b78" d="M 153.5,229.5 C 153.027,230.906 152.027,231.573 150.5,231.5C 150.973,230.094 151.973,229.427 153.5,229.5 Z"/></g>
<g><path style="opacity:0.29" fill="#606b7e" d="M 150.5,231.5 C 148.049,234.277 145.049,236.277 141.5,237.5C 143.951,234.723 146.951,232.723 150.5,231.5 Z"/></g>
<g><path style="opacity:1" fill="#eb8e1f" d="M 177.5,226.5 C 176.75,229.372 175.083,231.372 172.5,232.5C 155.548,240.616 140.714,251.616 128,265.5C 125.628,268.91 123.795,272.577 122.5,276.5C 121.402,275.399 121.235,274.066 122,272.5C 126.66,262.721 133.16,254.221 141.5,247C 152.712,238.584 164.712,231.751 177.5,226.5 Z"/></g>
<g><path style="opacity:1" fill="#eb8d1f" d="M 356.5,216.5 C 369.672,222.848 381.172,231.515 391,242.5C 393.661,245.599 394.494,248.932 393.5,252.5C 392.657,249.484 391.157,246.817 389,244.5C 379.892,235.06 369.392,227.56 357.5,222C 356.663,220.989 356.33,219.822 356.5,218.5C 356.5,217.833 356.5,217.167 356.5,216.5 Z"/></g>
<g><path style="opacity:1" fill="#fab03a" d="M 360.5,209.5 C 360.973,210.906 361.973,211.573 363.5,211.5C 365.336,213.588 367.669,214.921 370.5,215.5C 372.153,215.66 373.486,216.326 374.5,217.5C 375.035,219.446 376.368,220.446 378.5,220.5C 378.973,221.906 379.973,222.573 381.5,222.5C 382.539,224.531 384.205,225.864 386.5,226.5C 386.525,229.179 387.858,230.512 390.5,230.5C 391.5,230.833 392.167,231.5 392.5,232.5C 393.08,234.749 394.413,236.415 396.5,237.5C 396.738,239.404 397.738,240.738 399.5,241.5C 400.338,241.842 400.672,242.508 400.5,243.5C 401.833,250.167 401.833,256.833 400.5,263.5C 396.709,266.118 393.043,268.951 389.5,272C 375.677,277.332 361.343,279.832 346.5,279.5C 341.963,277.07 337.63,274.403 333.5,271.5C 344.505,271.667 355.505,271.5 366.5,271C 375.031,269.379 383.031,266.379 390.5,262C 393.029,259.358 394.029,256.192 393.5,252.5C 394.494,248.932 393.661,245.599 391,242.5C 381.172,231.515 369.672,222.848 356.5,216.5C 356.833,215.167 357.167,213.833 357.5,212.5C 357.5,211.5 357.5,210.5 357.5,209.5C 358.5,209.5 359.5,209.5 360.5,209.5 Z"/></g>
<g><path style="opacity:0.851" fill="#8a7e70" d="M 392.5,232.5 C 394.587,233.585 395.92,235.251 396.5,237.5C 394.413,236.415 393.08,234.749 392.5,232.5 Z"/></g>
<g><path style="opacity:1" fill="#fed57f" d="M 210.5,225.5 C 210.938,225.435 211.272,225.601 211.5,226C 204.919,235.16 198.586,244.494 192.5,254C 194.847,254.334 197.181,254.167 199.5,253.5C 195.722,259.891 190.056,262.891 182.5,262.5C 182.627,254.916 185.46,248.583 191,243.5C 191.483,242.552 191.649,241.552 191.5,240.5C 183.017,238.555 176.183,240.889 171,247.5C 168.454,250.86 166.621,254.526 165.5,258.5C 159.677,259.305 154.51,261.638 150,265.5C 148.85,268.768 148.016,272.101 147.5,275.5C 151.752,274.963 155.919,273.963 160,272.5C 162.585,274.758 165.085,277.258 167.5,280C 172.921,280.839 178.254,280.506 183.5,279C 198.909,273.433 210.909,263.6 219.5,249.5C 219.833,249.5 220.167,249.5 220.5,249.5C 222.786,249.405 224.786,248.738 226.5,247.5C 226.833,247.5 227.167,247.5 227.5,247.5C 230.518,247.296 233.518,246.963 236.5,246.5C 237.338,246.842 237.672,247.508 237.5,248.5C 236.85,248.196 236.183,247.863 235.5,247.5C 228.597,254.98 221.931,262.646 215.5,270.5C 220.134,271.341 224.801,271.341 229.5,270.5C 231.527,270.338 233.527,270.505 235.5,271C 225.196,275.488 214.863,279.821 204.5,284C 188.035,288.782 171.202,291.615 154,292.5C 144.701,292.698 135.868,290.865 127.5,287C 124.195,284.219 122.528,280.719 122.5,276.5C 123.795,272.577 125.628,268.91 128,265.5C 140.714,251.616 155.548,240.616 172.5,232.5C 172.907,233.762 173.24,235.095 173.5,236.5C 180.963,234.143 188.296,231.809 195.5,229.5C 200.387,227.76 205.387,226.427 210.5,225.5 Z"/></g>
<g><path style="opacity:1" fill="#ed8b1f" d="M 210.5,225.5 C 210.56,224.957 210.893,224.624 211.5,224.5C 213.927,227.443 215.593,230.776 216.5,234.5C 217.833,239.5 219.167,244.5 220.5,249.5C 220.167,249.5 219.833,249.5 219.5,249.5C 212.833,250.833 206.167,252.167 199.5,253.5C 197.181,254.167 194.847,254.334 192.5,254C 198.586,244.494 204.919,235.16 211.5,226C 211.272,225.601 210.938,225.435 210.5,225.5 Z"/></g>
<g><path style="opacity:0.949" fill="#786a70" d="M 216.5,234.5 C 216.833,234.5 217.167,234.5 217.5,234.5C 217.5,234.833 217.5,235.167 217.5,235.5C 219.428,239.285 220.762,243.285 221.5,247.5C 223.167,247.5 224.833,247.5 226.5,247.5C 224.786,248.738 222.786,249.405 220.5,249.5C 219.167,244.5 217.833,239.5 216.5,234.5 Z"/></g>
<g><path style="opacity:1" fill="#ec891e" d="M 306.5,232.5 C 306.5,232.833 306.5,233.167 306.5,233.5C 308.428,235.474 310.761,236.974 313.5,238C 317.793,238.899 321.793,240.399 325.5,242.5C 330.981,245.406 336.648,248.072 342.5,250.5C 340.221,251.651 337.888,252.651 335.5,253.5C 328.051,254.758 320.717,256.591 313.5,259C 312.944,259.383 312.611,259.883 312.5,260.5C 312.037,263.482 311.704,266.482 311.5,269.5C 309.833,269.5 308.167,269.5 306.5,269.5C 305.508,269.672 304.842,269.338 304.5,268.5C 303.817,266.824 302.483,266.157 300.5,266.5C 299.222,261.865 299.222,257.198 300.5,252.5C 301.477,249.713 301.81,246.713 301.5,243.5C 302.609,239.473 304.276,235.807 306.5,232.5 Z"/></g>
<g><path style="opacity:0.706" fill="#767a7a" d="M 396.5,237.5 C 398.262,238.262 399.262,239.596 399.5,241.5C 397.738,240.738 396.738,239.404 396.5,237.5 Z"/></g>
<g><path style="opacity:1" fill="#fed37a" d="M 342.5,250.5 C 336.648,248.072 330.981,245.406 325.5,242.5C 326.429,241.685 327.429,240.852 328.5,240C 334.442,238.965 340.108,239.632 345.5,242C 346.576,243.726 346.743,245.559 346,247.5C 345.578,249.426 344.411,250.426 342.5,250.5 Z"/></g>
<g><path style="opacity:1" fill="#fdb138" d="M 199.5,253.5 C 206.167,252.167 212.833,250.833 219.5,249.5C 210.909,263.6 198.909,273.433 183.5,279C 178.254,280.506 172.921,280.839 167.5,280C 165.085,277.258 162.585,274.758 160,272.5C 155.919,273.963 151.752,274.963 147.5,275.5C 148.016,272.101 148.85,268.768 150,265.5C 154.51,261.638 159.677,259.305 165.5,258.5C 166.621,254.526 168.454,250.86 171,247.5C 176.183,240.889 183.017,238.555 191.5,240.5C 191.649,241.552 191.483,242.552 191,243.5C 185.46,248.583 182.627,254.916 182.5,262.5C 190.056,262.891 195.722,259.891 199.5,253.5 Z"/></g>
<g><path style="opacity:0.286" fill="#5a4d97" d="M 269.5,240.5 C 269.293,243.241 268.293,245.574 266.5,247.5C 266.707,244.759 267.707,242.426 269.5,240.5 Z"/></g>
<g><path style="opacity:0.584" fill="#4a6291" d="M 236.5,246.5 C 233.518,246.963 230.518,247.296 227.5,247.5C 230.409,245.713 233.409,245.379 236.5,246.5 Z"/></g>
<g><path style="opacity:0.702" fill="#71686e" d="M 237.5,248.5 C 239.204,251.939 240.538,255.605 241.5,259.5C 239.01,256.374 237.677,252.708 237.5,248.5 Z"/></g>
<g><path style="opacity:0.867" fill="#a4745b" d="M 301.5,243.5 C 301.81,246.713 301.477,249.713 300.5,252.5C 300.5,251.833 300.5,251.167 300.5,250.5C 300.784,248.585 300.451,246.919 299.5,245.5C 299.833,244.5 300.5,243.833 301.5,243.5 Z"/></g>
<g><path style="opacity:0.478" fill="#656c7b" d="M 134.5,242.5 C 134.833,242.5 135.167,242.5 135.5,242.5C 131.833,246.833 127.833,250.833 123.5,254.5C 126.436,249.895 130.102,245.895 134.5,242.5 Z"/></g>
<g><path style="opacity:0.769" fill="#847a79" d="M 400.5,243.5 C 404.124,249.885 404.457,256.552 401.5,263.5C 401.167,263.5 400.833,263.5 400.5,263.5C 401.833,256.833 401.833,250.167 400.5,243.5 Z"/></g>
<g><path style="opacity:0.769" fill="#7f7b75" d="M 123.5,254.5 C 123.262,256.404 122.262,257.738 120.5,258.5C 120.738,256.596 121.738,255.262 123.5,254.5 Z"/></g>
<g><path style="opacity:0.941" fill="#884d94" d="M 266.5,247.5 C 265.151,253.861 262.485,259.528 258.5,264.5C 260.395,258.382 263.061,252.715 266.5,247.5 Z"/></g>
<g><path style="opacity:0.29" fill="#5f4a96" d="M 299.5,245.5 C 300.451,246.919 300.784,248.585 300.5,250.5C 300.167,250.5 299.833,250.5 299.5,250.5C 296.833,255.167 294.167,259.833 291.5,264.5C 293.885,258.062 296.551,251.729 299.5,245.5 Z"/></g>
<g><path style="opacity:0.604" fill="#5a5e7a" d="M 299.5,250.5 C 299.833,250.5 300.167,250.5 300.5,250.5C 300.5,251.167 300.5,251.833 300.5,252.5C 299.222,257.198 299.222,261.865 300.5,266.5C 298.516,266.516 297.516,265.516 297.5,263.5C 298.249,259.169 298.916,254.836 299.5,250.5 Z"/></g>
<g><path style="opacity:1" fill="#eb8b20" d="M 237.5,248.5 C 237.677,252.708 239.01,256.374 241.5,259.5C 241.5,259.833 241.5,260.167 241.5,260.5C 241.345,263.716 242.345,266.383 244.5,268.5C 239.5,269.167 234.5,269.833 229.5,270.5C 224.801,271.341 220.134,271.341 215.5,270.5C 221.931,262.646 228.597,254.98 235.5,247.5C 236.183,247.863 236.85,248.196 237.5,248.5 Z"/></g>
<g><path style="opacity:0.839" fill="#7f6969" d="M 241.5,260.5 C 242.945,262.571 243.945,264.904 244.5,267.5C 244.5,267.833 244.5,268.167 244.5,268.5C 242.345,266.383 241.345,263.716 241.5,260.5 Z"/></g>
<g><path style="opacity:1" fill="#cf7e2f" d="M 312.5,260.5 C 319.369,264.434 326.369,268.101 333.5,271.5C 337.63,274.403 341.963,277.07 346.5,279.5C 344.952,287.807 343.619,296.14 342.5,304.5C 342.167,304.5 341.833,304.5 341.5,304.5C 341.027,303.094 340.027,302.427 338.5,302.5C 337.508,302.672 336.842,302.338 336.5,301.5C 336.027,300.094 335.027,299.427 333.5,299.5C 332.738,297.738 331.404,296.738 329.5,296.5C 328.508,296.672 327.842,296.338 327.5,295.5C 327.027,294.094 326.027,293.427 324.5,293.5C 324.027,292.094 323.027,291.427 321.5,291.5C 321.027,290.094 320.027,289.427 318.5,289.5C 317.656,287.241 315.989,286.241 313.5,286.5C 312.878,285.373 312.045,284.373 311,283.5C 311.108,278.72 310.275,274.386 308.5,270.5C 307.508,270.672 306.842,270.338 306.5,269.5C 308.167,269.5 309.833,269.5 311.5,269.5C 311.704,266.482 312.037,263.482 312.5,260.5 Z"/></g>
<g><path style="opacity:0.855" fill="#846c68" d="M 300.5,266.5 C 302.483,266.157 303.817,266.824 304.5,268.5C 302.847,268.34 301.514,267.674 300.5,266.5 Z"/></g>
<g><path style="opacity:0.824" fill="#7b787c" d="M 120.5,258.5 C 115.852,265.787 113.852,273.787 114.5,282.5C 111.823,273.365 113.823,265.365 120.5,258.5 Z"/></g>
<g><path style="opacity:0.282" fill="#45538d" d="M 258.5,264.5 C 258.205,266.423 257.372,268.09 256,269.5C 255.617,268.944 255.117,268.611 254.5,268.5C 251.167,268.5 247.833,268.5 244.5,268.5C 244.5,268.167 244.5,267.833 244.5,267.5C 249.716,268.195 254.382,267.195 258.5,264.5 Z"/></g>
<g><path style="opacity:0.396" fill="#555d7b" d="M 400.5,263.5 C 400.833,263.5 401.167,263.5 401.5,263.5C 401.461,267.733 400.795,271.733 399.5,275.5C 399.5,274.167 399.5,272.833 399.5,271.5C 399.575,268.794 399.908,266.127 400.5,263.5 Z"/></g>
<g><path style="opacity:1" fill="#fbb039" d="M 183.5,215.5 C 185.028,215.517 185.528,216.184 185,217.5C 182.636,220.69 180.136,223.69 177.5,226.5C 164.712,231.751 152.712,238.584 141.5,247C 133.16,254.221 126.66,262.721 122,272.5C 121.235,274.066 121.402,275.399 122.5,276.5C 122.528,280.719 124.195,284.219 127.5,287C 135.868,290.865 144.701,292.698 154,292.5C 171.202,291.615 188.035,288.782 204.5,284C 214.863,279.821 225.196,275.488 235.5,271C 233.527,270.505 231.527,270.338 229.5,270.5C 234.5,269.833 239.5,269.167 244.5,268.5C 247.833,268.5 251.167,268.5 254.5,268.5C 254.5,268.833 254.5,269.167 254.5,269.5C 240.923,276.787 226.923,283.287 212.5,289C 188.525,297.377 163.858,300.711 138.5,299C 131.827,297.608 125.827,294.775 120.5,290.5C 119.893,290.624 119.56,290.957 119.5,291.5C 119.167,291.5 118.833,291.5 118.5,291.5C 118.289,287.818 116.956,284.818 114.5,282.5C 113.852,273.787 115.852,265.787 120.5,258.5C 122.262,257.738 123.262,256.404 123.5,254.5C 127.833,250.833 131.833,246.833 135.5,242.5C 137.909,241.299 139.909,239.633 141.5,237.5C 145.049,236.277 148.049,234.277 150.5,231.5C 152.027,231.573 153.027,230.906 153.5,229.5C 153.842,228.662 154.508,228.328 155.5,228.5C 157.027,228.573 158.027,227.906 158.5,226.5C 161.649,226.585 164.316,225.585 166.5,223.5C 168.636,222.347 170.636,221.014 172.5,219.5C 172.842,218.662 173.508,218.328 174.5,218.5C 176.898,218.741 178.898,218.074 180.5,216.5C 181.609,216.443 182.609,216.11 183.5,215.5 Z"/></g>
<g><path style="opacity:1" fill="#013582" d="M 419.5,207.5 C 420.898,208.777 421.564,210.443 421.5,212.5C 418.701,238.263 415.201,263.93 411,289.5C 410.251,293.251 409.251,296.918 408,300.5C 406.923,298.884 406.423,297.051 406.5,295C 408.651,265.441 412.984,236.274 419.5,207.5 Z"/></g>
<g><path style="opacity:0.753" fill="#b58559" d="M 399.5,271.5 C 399.5,272.833 399.5,274.167 399.5,275.5C 398.833,276.5 398.167,277.5 397.5,278.5C 397.41,275.848 398.076,273.515 399.5,271.5 Z"/></g>
<g><path style="opacity:0.478" fill="#555d7b" d="M 308.5,270.5 C 310.275,274.386 311.108,278.72 311,283.5C 312.045,284.373 312.878,285.373 313.5,286.5C 311.629,286.141 310.129,285.141 309,283.5C 309.593,279.116 309.426,274.783 308.5,270.5 Z"/></g>
<g><path style="opacity:0.831" fill="#8a7d75" d="M 114.5,282.5 C 116.956,284.818 118.289,287.818 118.5,291.5C 116.796,288.744 115.463,285.744 114.5,282.5 Z"/></g>
<g><path style="opacity:0.176" fill="#684d99" d="M 291.5,264.5 C 288.615,272.601 284.949,280.267 280.5,287.5C 280.687,285.436 281.187,283.436 282,281.5C 285.03,275.667 288.197,270 291.5,264.5 Z"/></g>
<g><path style="opacity:1" fill="#e98720" d="M 400.5,263.5 C 399.908,266.127 399.575,268.794 399.5,271.5C 398.076,273.515 397.41,275.848 397.5,278.5C 396.941,282.853 396.275,287.186 395.5,291.5C 393.196,294.141 390.862,296.808 388.5,299.5C 388.158,300.338 387.492,300.672 386.5,300.5C 384.447,300.402 382.78,301.069 381.5,302.5C 380.791,303.404 379.791,303.737 378.5,303.5C 374.878,303.322 371.544,303.989 368.5,305.5C 359.792,305.745 351.126,305.411 342.5,304.5C 343.619,296.14 344.952,287.807 346.5,279.5C 361.343,279.832 375.677,277.332 389.5,272C 393.043,268.951 396.709,266.118 400.5,263.5 Z"/></g>
<g><path style="opacity:1" fill="#8a6c66" d="M 313.5,286.5 C 315.989,286.241 317.656,287.241 318.5,289.5C 316.566,288.89 314.899,287.89 313.5,286.5 Z"/></g>
<g><path style="opacity:0.459" fill="#6d6671" d="M 399.5,275.5 C 399.219,279.188 398.719,282.855 398,286.5C 397.901,288.653 397.067,290.319 395.5,291.5C 396.275,287.186 396.941,282.853 397.5,278.5C 398.167,277.5 398.833,276.5 399.5,275.5 Z"/></g>
<g><path style="opacity:0.4" fill="#53657a" d="M 318.5,289.5 C 320.027,289.427 321.027,290.094 321.5,291.5C 319.973,291.573 318.973,290.906 318.5,289.5 Z"/></g>
<g><path style="opacity:0.388" fill="#505976" d="M 321.5,291.5 C 323.027,291.427 324.027,292.094 324.5,293.5C 322.973,293.573 321.973,292.906 321.5,291.5 Z"/></g>
<g><path style="opacity:0.024" fill="#5f4a94" d="M 279.5,289.5 C 279.065,292.157 278.065,294.491 276.5,296.5C 276.166,293.509 277.166,291.176 279.5,289.5 Z"/></g>
<g><path style="opacity:0.396" fill="#545a76" d="M 324.5,293.5 C 326.027,293.427 327.027,294.094 327.5,295.5C 325.973,295.573 324.973,294.906 324.5,293.5 Z"/></g>
<g><path style="opacity:0.129" fill="#515676" d="M 395.5,291.5 C 394.569,295.429 392.236,298.095 388.5,299.5C 390.862,296.808 393.196,294.141 395.5,291.5 Z"/></g>
<g><path style="opacity:1" fill="#013581" d="M 79.5,225.5 C 81.4741,227.428 82.9741,229.761 84,232.5C 94,258 102.5,284 109.5,310.5C 109.167,311.167 108.833,311.833 108.5,312.5C 104.345,304.896 100.845,296.896 98,288.5C 90.3104,267.933 84.1437,246.933 79.5,225.5 Z"/></g>
<g><path style="opacity:0.498" fill="#606072" d="M 329.5,296.5 C 331.404,296.738 332.738,297.738 333.5,299.5C 331.596,299.262 330.262,298.262 329.5,296.5 Z"/></g>
<g><path style="opacity:0.102" fill="#6a4897" d="M 276.5,296.5 C 275.674,299.485 274.341,302.151 272.5,304.5C 272.532,301.006 273.865,298.339 276.5,296.5 Z"/></g>
<g><path style="opacity:0.349" fill="#48557c" d="M 333.5,299.5 C 335.027,299.427 336.027,300.094 336.5,301.5C 334.973,301.573 333.973,300.906 333.5,299.5 Z"/></g>
<g><path style="opacity:0.353" fill="#5d5869" d="M 386.5,300.5 C 385.22,301.931 383.553,302.598 381.5,302.5C 382.78,301.069 384.447,300.402 386.5,300.5 Z"/></g>
<g><path style="opacity:0.341" fill="#686072" d="M 118.5,291.5 C 118.833,291.5 119.167,291.5 119.5,291.5C 122.078,298.345 124.412,305.345 126.5,312.5C 123.066,305.876 120.4,298.876 118.5,291.5 Z"/></g>
<g><path style="opacity:1" fill="#e98720" d="M 254.5,269.5 C 254.143,273.263 253.31,276.93 252,280.5C 249.566,283.795 247.899,287.462 247,291.5C 242.651,297.705 239.151,304.372 236.5,311.5C 235.099,312.521 233.765,313.521 232.5,314.5C 230.435,314.953 228.768,315.953 227.5,317.5C 224.47,319.403 221.137,320.737 217.5,321.5C 215.447,321.402 213.78,322.069 212.5,323.5C 208.919,323.138 205.919,324.138 203.5,326.5C 201.958,327.301 200.292,327.634 198.5,327.5C 195.813,327.336 193.146,327.503 190.5,328C 189.944,328.383 189.611,328.883 189.5,329.5C 175.325,332.422 161.325,332.089 147.5,328.5C 145.485,327.076 143.152,326.41 140.5,326.5C 135.507,322.174 130.84,317.507 126.5,312.5C 124.412,305.345 122.078,298.345 119.5,291.5C 119.56,290.957 119.893,290.624 120.5,290.5C 125.827,294.775 131.827,297.608 138.5,299C 163.858,300.711 188.525,297.377 212.5,289C 226.923,283.287 240.923,276.787 254.5,269.5 Z"/></g>
<g><path style="opacity:0.392" fill="#5c5f75" d="M 338.5,302.5 C 340.027,302.427 341.027,303.094 341.5,304.5C 339.973,304.573 338.973,303.906 338.5,302.5 Z"/></g>
<g><path style="opacity:0.216" fill="#4a5674" d="M 378.5,303.5 C 375.411,304.785 372.078,305.451 368.5,305.5C 371.544,303.989 374.878,303.322 378.5,303.5 Z"/></g>
<g><path style="opacity:0.617" fill="#796665" d="M 341.5,304.5 C 341.833,304.5 342.167,304.5 342.5,304.5C 351.126,305.411 359.792,305.745 368.5,305.5C 360.344,306.657 352.01,306.823 343.5,306C 342.584,305.722 341.918,305.222 341.5,304.5 Z"/></g>
<g><path style="opacity:0.42" fill="#734e98" d="M 271.5,306.5 C 271.008,308.819 270.008,310.819 268.5,312.5C 268.461,309.911 269.461,307.911 271.5,306.5 Z"/></g>
<g><path style="opacity:0.757" fill="#7a6869" d="M 126.5,312.5 C 130.84,317.507 135.507,322.174 140.5,326.5C 134.188,323.522 129.522,318.855 126.5,312.5 Z"/></g>
<g><path style="opacity:0.063" fill="#6a4c95" d="M 268.5,312.5 C 266.956,317.919 264.622,322.919 261.5,327.5C 261.687,325.436 262.187,323.436 263,321.5C 264.566,318.248 266.399,315.248 268.5,312.5 Z"/></g>
<g><path style="opacity:1" fill="#dd0c54" d="M 356.5,338.5 C 354.5,338.5 353.5,339.5 353.5,341.5C 350.573,342.757 348.239,344.757 346.5,347.5C 346.5,348.167 346.167,348.5 345.5,348.5C 338.285,353.371 331.618,359.037 325.5,365.5C 324.625,362.46 323.625,359.46 322.5,356.5C 321.311,355.571 319.978,355.238 318.5,355.5C 316.473,355.338 314.473,355.505 312.5,356C 311.944,356.383 311.611,356.883 311.5,357.5C 300.918,359.214 290.585,361.547 280.5,364.5C 274.681,365.23 268.847,365.897 263,366.5C 258.405,366.354 253.905,365.687 249.5,364.5C 247.847,364.34 246.514,363.674 245.5,362.5C 244.738,360.738 243.404,359.738 241.5,359.5C 240.167,357.5 238.5,355.833 236.5,354.5C 233.529,349.549 231.362,344.215 230,338.5C 229.192,334.973 229.359,331.64 230.5,328.5C 238.252,340.194 248.586,343.194 261.5,337.5C 267.184,337.739 272.518,336.739 277.5,334.5C 282.444,334.246 287.111,333.246 291.5,331.5C 299.155,330.335 306.821,329.169 314.5,328C 316.885,324.641 316.885,321.141 314.5,317.5C 314.833,317.167 315.167,316.833 315.5,316.5C 330.817,321.155 346.15,325.822 361.5,330.5C 361.649,331.552 361.483,332.552 361,333.5C 359.293,335.037 357.793,336.704 356.5,338.5 Z"/></g>
<g><path style="opacity:0.259" fill="#5b5a74" d="M 217.5,321.5 C 216.22,322.931 214.553,323.598 212.5,323.5C 213.78,322.069 215.447,321.402 217.5,321.5 Z"/></g>
<g><path style="opacity:0.267" fill="#615e70" d="M 212.5,323.5 C 209.746,324.946 206.746,325.946 203.5,326.5C 205.919,324.138 208.919,323.138 212.5,323.5 Z"/></g>
<g><path style="opacity:0.694" fill="#79696c" d="M 140.5,326.5 C 143.152,326.41 145.485,327.076 147.5,328.5C 144.848,328.59 142.515,327.924 140.5,326.5 Z"/></g>
<g><path style="opacity:0.49" fill="#766670" d="M 198.5,327.5 C 195.727,328.657 192.727,329.324 189.5,329.5C 189.611,328.883 189.944,328.383 190.5,328C 193.146,327.503 195.813,327.336 198.5,327.5 Z"/></g>
<g><path style="opacity:0.443" fill="#5e398c" d="M 356.5,338.5 C 357.793,336.704 359.293,335.037 361,333.5C 361.483,332.552 361.649,331.552 361.5,330.5C 346.15,325.822 330.817,321.155 315.5,316.5C 315.167,316.833 314.833,317.167 314.5,317.5C 316.885,321.141 316.885,324.641 314.5,328C 306.821,329.169 299.155,330.335 291.5,331.5C 298.916,329.112 306.583,327.279 314.5,326C 314.833,325.667 315.167,325.333 315.5,325C 313.863,321.715 313.196,318.215 313.5,314.5C 330.335,319.248 347.002,324.581 363.5,330.5C 364.521,331.002 364.688,331.668 364,332.5C 361.894,335.118 359.394,337.118 356.5,338.5 Z"/></g>
<g><path style="opacity:0.49" fill="#724995" d="M 261.5,327.5 C 260.986,329.366 260.32,331.2 259.5,333C 259.989,334.138 260.322,335.305 260.5,336.5C 259.053,335.866 258.387,334.699 258.5,333C 258.613,330.601 259.613,328.768 261.5,327.5 Z"/></g>
<g><path style="opacity:0.341" fill="#5b4090" d="M 232.5,314.5 C 233.376,314.369 234.043,314.702 234.5,315.5C 232.86,319.769 231.527,324.102 230.5,328.5C 229.359,331.64 229.192,334.973 230,338.5C 231.362,344.215 233.529,349.549 236.5,354.5C 229.459,346.522 226.959,337.189 229,326.5C 229.873,323.382 231.039,320.382 232.5,317.5C 230.997,316.948 229.331,316.948 227.5,317.5C 228.768,315.953 230.435,314.953 232.5,314.5 Z"/></g>
<g><path style="opacity:0.345" fill="#52388f" d="M 291.5,331.5 C 287.111,333.246 282.444,334.246 277.5,334.5C 281.833,332.498 286.5,331.498 291.5,331.5 Z"/></g>
<g><path style="opacity:0.329" fill="#573a90" d="M 277.5,334.5 C 272.518,336.739 267.184,337.739 261.5,337.5C 260.833,337.5 260.5,337.167 260.5,336.5C 266.18,335.942 271.847,335.275 277.5,334.5 Z"/></g>
<g><path style="opacity:0.286" fill="#5f398b" d="M 356.5,338.5 C 355.833,339.833 354.833,340.833 353.5,341.5C 353.5,339.5 354.5,338.5 356.5,338.5 Z"/></g>
<g><path style="opacity:0.09" fill="#4d3d92" d="M 353.5,341.5 C 351.761,344.243 349.427,346.243 346.5,347.5C 348.239,344.757 350.573,342.757 353.5,341.5 Z"/></g>
<g><path style="opacity:0.047" fill="#4f3892" d="M 236.5,354.5 C 238.5,355.833 240.167,357.5 241.5,359.5C 238.833,358.833 237.167,357.167 236.5,354.5 Z"/></g>
<g><path style="opacity:0.843" fill="#b01d6c" d="M 318.5,355.5 C 318.5,355.833 318.5,356.167 318.5,356.5C 316.097,356.448 313.764,356.781 311.5,357.5C 311.611,356.883 311.944,356.383 312.5,356C 314.473,355.505 316.473,355.338 318.5,355.5 Z"/></g>
<g><path style="opacity:0.349" fill="#59378d" d="M 318.5,356.5 C 306.078,359.786 293.411,362.452 280.5,364.5C 290.585,361.547 300.918,359.214 311.5,357.5C 313.764,356.781 316.097,356.448 318.5,356.5 Z"/></g>
<g><path style="opacity:0.651" fill="#733181" d="M 241.5,359.5 C 243.404,359.738 244.738,360.738 245.5,362.5C 243.596,362.262 242.262,361.262 241.5,359.5 Z"/></g>
<g><path style="opacity:0.351" fill="#533a8e" d="M 345.5,348.5 C 339.395,354.103 333.395,359.936 327.5,366C 326.207,366.49 324.873,366.657 323.5,366.5C 322.626,363.211 321.959,359.877 321.5,356.5C 320.5,356.5 319.5,356.5 318.5,356.5C 318.5,356.167 318.5,355.833 318.5,355.5C 319.978,355.238 321.311,355.571 322.5,356.5C 323.625,359.46 324.625,362.46 325.5,365.5C 331.618,359.037 338.285,353.371 345.5,348.5 Z"/></g>
<g><path style="opacity:0.532" fill="#673288" d="M 249.5,364.5 C 253.905,365.687 258.405,366.354 263,366.5C 268.847,365.897 274.681,365.23 280.5,364.5C 272.165,367.299 263.499,368.133 254.5,367C 252.509,366.626 250.842,365.793 249.5,364.5 Z"/></g>
<g><path style="opacity:1" fill="#002c70" d="M 321.5,429.5 C 289.168,430.8 256.834,430.8 224.5,429.5C 207.046,429.258 190.046,426.424 173.5,421C 170.068,418.633 169.735,415.966 172.5,413C 184.775,408.545 197.442,405.878 210.5,405C 251.836,401.694 293.17,401.694 334.5,405C 347.571,405.881 360.238,408.547 372.5,413C 376.814,417.401 375.814,420.401 369.5,422C 353.811,426.503 337.811,429.003 321.5,429.5 Z"/></g>
<g><path style="opacity:0.315" fill="#04449a" d="M 224.5,429.5 C 256.834,430.8 289.168,430.8 321.5,429.5C 305.028,431.025 288.361,431.692 271.5,431.5C 255.634,431.721 239.967,431.054 224.5,429.5 Z"/></g>
</svg>
