<?xml version="1.0" encoding="UTF-8"?>
<!DOCTYPE svg PUBLIC "-//W3C//DTD SVG 1.1//EN" "http://www.w3.org/Graphics/SVG/1.1/DTD/svg11.dtd">
<svg xmlns="http://www.w3.org/2000/svg" version="1.1" width="577px" height="433px" style="shape-rendering:geometricPrecision; text-rendering:geometricPrecision; image-rendering:optimizeQuality; fill-rule:evenodd; clip-rule:evenodd" xmlns:xlink="http://www.w3.org/1999/xlink">
<g><path style="opacity:0.298" fill="#c3b57a" d="M 180.5,119.5 C 166.064,117.913 151.731,118.58 137.5,121.5C 141.93,119.925 146.597,118.758 151.5,118C 159.5,117.333 167.5,117.333 175.5,118C 177.382,118.198 179.048,118.698 180.5,119.5 Z"/></g>
<g><path style="opacity:1" fill="#edaf4f" d="M 180.5,119.5 C 182.735,119.205 184.735,119.539 186.5,120.5C 186.47,121.497 186.97,122.164 188,122.5C 198.951,125.481 209.451,129.481 219.5,134.5C 220.684,135.688 220.684,136.855 219.5,138C 220.888,140.497 222.721,141.33 225,140.5C 226.713,141.137 226.879,142.137 225.5,143.5C 227.108,144.242 228.775,144.409 230.5,144C 234,146.669 237.333,149.502 240.5,152.5C 254.109,166.385 262.442,183.051 265.5,202.5C 265.9,208.829 266.233,215.162 266.5,221.5C 264.447,221.402 262.78,222.069 261.5,223.5C 259.095,224.768 256.428,225.435 253.5,225.5C 252.167,225.5 250.833,225.5 249.5,225.5C 246.943,178.455 223.943,145.955 180.5,128C 172.197,126.227 163.864,124.56 155.5,123C 147.139,122.295 138.806,122.462 130.5,123.5C 132.515,122.076 134.848,121.41 137.5,121.5C 151.731,118.58 166.064,117.913 180.5,119.5 Z"/></g>
<g><path style="opacity:1" fill="#fdbd56" d="M 249.5,225.5 C 245.167,225.5 240.833,225.5 236.5,225.5C 233.748,182.45 212.082,153.95 171.5,140C 119.552,129.556 82.7192,148.389 61,196.5C 48.7104,241.987 61.8771,277.82 100.5,304C 129.886,320.153 159.553,320.653 189.5,305.5C 193.277,307.686 195.61,311.02 196.5,315.5C 194.362,317.735 192.029,319.735 189.5,321.5C 183.879,322.821 178.212,323.988 172.5,325C 169.697,325.615 167.364,326.782 165.5,328.5C 164.5,328.5 163.5,328.5 162.5,328.5C 149.817,328.626 137.15,328.293 124.5,327.5C 124.167,327.5 123.833,327.5 123.5,327.5C 121.485,326.076 119.152,325.41 116.5,325.5C 101.491,321.502 88.4911,314.168 77.5,303.5C 75.7607,300.757 73.4274,298.757 70.5,297.5C 70.573,295.973 69.9063,294.973 68.5,294.5C 67.5,294.167 66.8333,293.5 66.5,292.5C 64.221,287.588 61.221,283.255 57.5,279.5C 55.3467,273.86 52.68,268.527 49.5,263.5C 49.5,263.167 49.5,262.833 49.5,262.5C 48.8372,259.179 48.1705,255.846 47.5,252.5C 47.6207,251.106 47.954,249.772 48.5,248.5C 46.3931,245.672 44.7264,242.672 43.5,239.5C 43.2418,227.1 43.9085,214.767 45.5,202.5C 47.6098,198.498 48.9431,194.165 49.5,189.5C 53.166,184.835 55.8327,179.502 57.5,173.5C 57.7497,171.326 58.7497,169.659 60.5,168.5C 66.769,160.893 73.4356,153.56 80.5,146.5C 90.5062,137.326 102.173,130.993 115.5,127.5C 119.854,127.021 124.188,126.354 128.5,125.5C 129.713,125.253 130.38,124.586 130.5,123.5C 138.806,122.462 147.139,122.295 155.5,123C 163.864,124.56 172.197,126.227 180.5,128C 223.943,145.955 246.943,178.455 249.5,225.5 Z"/></g>
<g><path style="opacity:1" fill="#e2be6f" d="M 130.5,123.5 C 130.38,124.586 129.713,125.253 128.5,125.5C 124.188,126.354 119.854,127.021 115.5,127.5C 120.191,125.409 125.191,124.076 130.5,123.5 Z"/></g>
<g><path style="opacity:1" fill="#d7b367" d="M 186.5,120.5 C 198.643,122.746 209.643,127.412 219.5,134.5C 209.451,129.481 198.951,125.481 188,122.5C 186.97,122.164 186.47,121.497 186.5,120.5 Z"/></g>
<g><path style="opacity:1" fill="#da9b34" d="M 236.5,225.5 C 232.5,225.5 228.5,225.5 224.5,225.5C 222.603,188.541 204.269,163.708 169.5,151C 125.507,141.248 93.3406,156.414 73,196.5C 62.1556,227.105 67.1556,254.772 88,279.5C 109.132,301.432 134.632,309.265 164.5,303C 171.373,300.988 178.04,298.488 184.5,295.5C 185.887,298.053 187.72,300.386 190,302.5C 190.47,303.577 190.303,304.577 189.5,305.5C 159.553,320.653 129.886,320.153 100.5,304C 61.8771,277.82 48.7104,241.987 61,196.5C 82.7192,148.389 119.552,129.556 171.5,140C 212.082,153.95 233.748,182.45 236.5,225.5 Z"/></g>
<g><path style="opacity:1" fill="#ddb260" d="M 219.5,134.5 C 224.792,137.488 229.792,140.988 234.5,145C 237.118,147.106 239.118,149.606 240.5,152.5C 237.333,149.502 234,146.669 230.5,144C 228.775,144.409 227.108,144.242 225.5,143.5C 226.879,142.137 226.713,141.137 225,140.5C 222.721,141.33 220.888,140.497 219.5,138C 220.684,136.855 220.684,135.688 219.5,134.5 Z"/></g>
<g><path style="opacity:1" fill="#febd55" d="M 224.5,225.5 C 208.833,225.5 193.167,225.5 177.5,225.5C 174.616,221.451 170.949,218.284 166.5,216C 158.518,214.89 150.518,213.89 142.5,213C 132.822,210.01 130.489,204.344 135.5,196C 137.365,194.699 139.365,194.365 141.5,195C 144.712,197.019 146.378,199.853 146.5,203.5C 153.79,201.96 161.123,200.627 168.5,199.5C 167.509,188.672 161.843,181.506 151.5,178C 147.167,177.667 142.833,177.333 138.5,177C 137.139,175.416 136.472,173.582 136.5,171.5C 132.915,172.583 129.249,173.249 125.5,173.5C 126.008,176.176 126.175,178.843 126,181.5C 110.835,189.193 106.168,201.193 112,217.5C 115.167,224.667 120.333,229.833 127.5,233C 135.114,234.576 142.781,235.743 150.5,236.5C 151.398,237.158 152.398,237.824 153.5,238.5C 155.683,241.99 157.35,245.657 158.5,249.5C 154.649,255.115 150.149,255.782 145,251.5C 144.218,248.784 142.884,246.45 141,244.5C 134.114,246.097 127.281,247.763 120.5,249.5C 122.925,267.555 133.258,274.888 151.5,271.5C 152.374,274.789 153.041,278.123 153.5,281.5C 157.557,281.152 161.557,280.486 165.5,279.5C 164.725,275.186 164.059,270.853 163.5,266.5C 164.959,266.567 166.292,266.234 167.5,265.5C 168.376,265.369 169.043,265.702 169.5,266.5C 173.842,275.193 178.675,283.526 184,291.5C 184.49,292.793 184.657,294.127 184.5,295.5C 178.04,298.488 171.373,300.988 164.5,303C 134.632,309.265 109.132,301.432 88,279.5C 67.1556,254.772 62.1556,227.105 73,196.5C 93.3406,156.414 125.507,141.248 169.5,151C 204.269,163.708 222.603,188.541 224.5,225.5 Z"/></g>
<g><path style="opacity:0.725" fill="#dabe76" d="M 80.5,146.5 C 73.4356,153.56 66.769,160.893 60.5,168.5C 65.4053,159.593 72.072,152.26 80.5,146.5 Z"/></g>
<g><path style="opacity:1" fill="#fbdabb" d="M 471.5,167.5 C 475.161,175.148 477.827,183.148 479.5,191.5C 479.947,198.183 480.614,204.85 481.5,211.5C 481.357,214.113 480.69,216.447 479.5,218.5C 478.833,218.5 478.167,218.5 477.5,218.5C 476.833,219.167 476.167,219.833 475.5,220.5C 470.684,219.35 465.684,219.184 460.5,220C 451.077,221.663 441.744,222.83 432.5,223.5C 425.491,224.253 418.491,224.753 411.5,225C 415.914,216.924 419.248,208.424 421.5,199.5C 416.156,198.655 414.323,195.655 416,190.5C 418.592,189.018 420.925,189.352 423,191.5C 423.499,186.845 423.666,182.179 423.5,177.5C 440.472,178.373 456.472,175.04 471.5,167.5 Z"/></g>
<g><path style="opacity:1" fill="#da9b34" d="M 177.5,225.5 C 173.4,225.237 169.4,225.57 165.5,226.5C 160.156,226.334 154.823,226.501 149.5,227C 148.863,230.135 149.529,233.135 151.5,236C 151.272,236.399 150.938,236.565 150.5,236.5C 142.781,235.743 135.114,234.576 127.5,233C 120.333,229.833 115.167,224.667 112,217.5C 106.168,201.193 110.835,189.193 126,181.5C 126.175,178.843 126.008,176.176 125.5,173.5C 129.249,173.249 132.915,172.583 136.5,171.5C 136.472,173.582 137.139,175.416 138.5,177C 142.833,177.333 147.167,177.667 151.5,178C 161.843,181.506 167.509,188.672 168.5,199.5C 161.123,200.627 153.79,201.96 146.5,203.5C 146.378,199.853 144.712,197.019 141.5,195C 139.365,194.365 137.365,194.699 135.5,196C 130.489,204.344 132.822,210.01 142.5,213C 150.518,213.89 158.518,214.89 166.5,216C 170.949,218.284 174.616,221.451 177.5,225.5 Z"/></g>
<g><path style="opacity:0.961" fill="#e9bf6c" d="M 57.5,173.5 C 55.8327,179.502 53.166,184.835 49.5,189.5C 51.1318,183.57 53.7985,178.236 57.5,173.5 Z"/></g>
<g><path style="opacity:1" fill="#44403d" d="M 469.5,182.5 C 471.411,182.574 472.578,183.574 473,185.5C 473.667,187.5 473.667,189.5 473,191.5C 471.413,192.727 470.079,192.394 469,190.5C 468.278,187.739 468.445,185.073 469.5,182.5 Z"/></g>
<g><path style="opacity:0.824" fill="#dbbf76" d="M 49.5,189.5 C 48.9431,194.165 47.6098,198.498 45.5,202.5C 46.0569,197.835 47.3902,193.502 49.5,189.5 Z"/></g>
<g><path style="opacity:1" fill="#494746" d="M 436.5,187.5 C 440.784,188.385 442.284,191.051 441,195.5C 438.918,198.15 437.251,197.816 436,194.5C 435.297,192.071 435.463,189.738 436.5,187.5 Z"/></g>
<g><path style="opacity:1" fill="#e1d2ba" d="M 527.5,202.5 C 527.5,201.5 527.5,200.5 527.5,199.5C 524.461,198.99 521.461,198.323 518.5,197.5C 517.632,191.011 520.299,188.511 526.5,190C 528.664,194.121 528.997,198.288 527.5,202.5 Z"/></g>
<g><path style="opacity:1" fill="#434443" d="M 471.5,167.5 C 456.472,175.04 440.472,178.373 423.5,177.5C 423.666,182.179 423.499,186.845 423,191.5C 420.925,189.352 418.592,189.018 416,190.5C 414.323,195.655 416.156,198.655 421.5,199.5C 419.248,208.424 415.914,216.924 411.5,225C 418.491,224.753 425.491,224.253 432.5,223.5C 432.833,224.167 433.167,224.833 433.5,225.5C 433.5,228.833 433.5,232.167 433.5,235.5C 436.167,236.167 438.833,236.833 441.5,237.5C 441.232,240.119 441.565,242.619 442.5,245C 447.165,246.611 451.832,248.111 456.5,249.5C 457.5,249.5 458.5,249.5 459.5,249.5C 463.941,246.946 468.608,244.946 473.5,243.5C 473.6,240.333 472.933,237.333 471.5,234.5C 473.351,232.544 475.684,231.544 478.5,231.5C 478.073,227.176 477.739,222.842 477.5,218.5C 478.167,218.5 478.833,218.5 479.5,218.5C 481.5,218.5 483.5,218.5 485.5,218.5C 504.482,223.85 515.482,216.85 518.5,197.5C 521.461,198.323 524.461,198.99 527.5,199.5C 527.5,200.5 527.5,201.5 527.5,202.5C 522.631,225.281 508.631,234.614 485.5,230.5C 484.729,254.707 485.396,278.874 487.5,303C 486.391,309.462 486.225,315.962 487,322.5C 492.654,319.075 497.154,320.075 500.5,325.5C 500.023,326.478 499.357,327.311 498.5,328C 493.177,328.499 487.844,328.666 482.5,328.5C 481.524,313.739 479.69,299.072 477,284.5C 475.938,283.903 474.772,283.57 473.5,283.5C 459.23,285.706 444.896,287.373 430.5,288.5C 429.38,294.172 428.213,299.839 427,305.5C 422.042,308.723 417.209,312.056 412.5,315.5C 417.29,318.872 418.29,323.038 415.5,328C 414.451,328.492 413.451,328.326 412.5,327.5C 409.464,323.928 406.797,320.095 404.5,316C 409.667,311.5 414.833,307 420,302.5C 419.338,280.868 416.338,259.534 411,238.5C 393.196,236.462 383.696,244.462 382.5,262.5C 382.5,263.833 382.5,265.167 382.5,266.5C 379.5,266.5 376.5,266.5 373.5,266.5C 371.204,240.612 383.204,226.778 409.5,225C 400.343,206.541 396.176,187.041 397,166.5C 399.3,160.257 403.8,156.757 410.5,156C 415.536,141.877 425.702,135.043 441,135.5C 449.732,136.579 458.232,138.579 466.5,141.5C 468.634,141.485 470.634,140.985 472.5,140C 475.325,137.876 477.825,135.376 480,132.5C 485.483,146.211 482.65,157.878 471.5,167.5 Z"/></g>
<g><path style="opacity:1" fill="#e87f85" d="M 454.5,202.5 C 458.833,202.5 463.167,202.5 467.5,202.5C 468.26,207.814 466.26,211.647 461.5,214C 451.915,217.34 446.581,214.174 445.5,204.5C 448.689,204.142 451.689,203.475 454.5,202.5 Z"/></g>
<g><path style="opacity:0.645" fill="#d2ceb6" d="M 479.5,191.5 C 481.471,199.241 482.637,207.241 483,215.5C 483.698,216.691 484.531,217.691 485.5,218.5C 483.5,218.5 481.5,218.5 479.5,218.5C 480.69,216.447 481.357,214.113 481.5,211.5C 480.614,204.85 479.947,198.183 479.5,191.5 Z"/></g>
<g><path style="opacity:0.577" fill="#cbb473" d="M 265.5,202.5 C 267.126,208.928 267.793,215.595 267.5,222.5C 265.5,222.833 263.5,223.167 261.5,223.5C 262.78,222.069 264.447,221.402 266.5,221.5C 266.233,215.162 265.9,208.829 265.5,202.5 Z"/></g>
<g><path style="opacity:0.451" fill="#d6c07c" d="M 45.5,202.5 C 43.9085,214.767 43.2418,227.1 43.5,239.5C 42.3431,231.01 42.1764,222.343 43,213.5C 43.4188,209.608 44.2521,205.942 45.5,202.5 Z"/></g>
<g><path style="opacity:1" fill="#f4f1ef" d="M 475.5,220.5 C 471.86,227.769 467.527,234.436 462.5,240.5C 461.607,237.32 460.607,234.154 459.5,231C 461.434,229.046 461.767,226.88 460.5,224.5C 456.326,222.504 453.326,223.504 451.5,227.5C 453.301,230.535 453.968,233.869 453.5,237.5C 452.691,239.292 452.191,241.292 452,243.5C 445.965,237.297 439.798,231.297 433.5,225.5C 433.167,224.833 432.833,224.167 432.5,223.5C 441.744,222.83 451.077,221.663 460.5,220C 465.684,219.184 470.684,219.35 475.5,220.5 Z"/></g>
<g><path style="opacity:1" fill="#807e7d" d="M 477.5,218.5 C 477.739,222.842 478.073,227.176 478.5,231.5C 475.684,231.544 473.351,232.544 471.5,234.5C 472.933,237.333 473.6,240.333 473.5,243.5C 468.608,244.946 463.941,246.946 459.5,249.5C 460.241,246.366 461.241,243.366 462.5,240.5C 467.527,234.436 471.86,227.769 475.5,220.5C 476.167,219.833 476.833,219.167 477.5,218.5 Z"/></g>
<g><path style="opacity:0.517" fill="#d2b975" d="M 177.5,225.5 C 193.167,225.5 208.833,225.5 224.5,225.5C 228.5,225.5 232.5,225.5 236.5,225.5C 240.833,225.5 245.167,225.5 249.5,225.5C 250.833,225.5 252.167,225.5 253.5,225.5C 249.761,226.922 245.761,227.589 241.5,227.5C 217.19,227.284 192.856,227.117 168.5,227C 167.829,227.986 167.829,229.153 168.5,230.5C 166.088,230.306 165.088,228.973 165.5,226.5C 169.4,225.57 173.4,225.237 177.5,225.5 Z"/></g>
<g><path style="opacity:1" fill="#ebaf50" d="M 323.5,234.5 C 321.54,233.862 319.707,233.862 318,234.5C 317.07,236.936 315.903,239.269 314.5,241.5C 314.863,242.183 315.196,242.85 315.5,243.5C 312.909,244.254 311.076,245.921 310,248.5C 309.53,249.577 309.697,250.577 310.5,251.5C 309.504,251.414 308.671,251.748 308,252.5C 302.167,262.833 296.333,273.167 290.5,283.5C 291.602,284.176 292.602,284.842 293.5,285.5C 291.278,285.178 289.444,285.845 288,287.5C 283.646,294.207 279.813,301.207 276.5,308.5C 270.5,308.5 264.5,308.5 258.5,308.5C 258.5,307.833 258.5,307.167 258.5,306.5C 272.741,282.357 286.741,258.024 300.5,233.5C 301.025,232.808 301.692,232.308 302.5,232C 308.167,231.333 313.833,231.333 319.5,232C 321.066,232.608 322.4,233.442 323.5,234.5 Z"/></g>
<g><path style="opacity:1" fill="#fcbd57" d="M 323.5,234.5 C 326.117,235.786 328.45,237.453 330.5,239.5C 331.865,241.86 333.865,243.527 336.5,244.5C 338.43,248.1 341.097,251.1 344.5,253.5C 349.746,258.981 353.746,265.314 356.5,272.5C 357.356,277.854 359.023,282.854 361.5,287.5C 362.729,294.441 363.396,301.441 363.5,308.5C 359.833,308.5 356.167,308.5 352.5,308.5C 351.771,280.023 339.437,258.356 315.5,243.5C 315.196,242.85 314.863,242.183 314.5,241.5C 315.903,239.269 317.07,236.936 318,234.5C 319.707,233.862 321.54,233.862 323.5,234.5 Z"/></g>
<g><path style="opacity:1" fill="#817e7c" d="M 433.5,225.5 C 439.798,231.297 445.965,237.297 452,243.5C 452.191,241.292 452.691,239.292 453.5,237.5C 452.769,242.073 453.769,246.073 456.5,249.5C 451.832,248.111 447.165,246.611 442.5,245C 441.565,242.619 441.232,240.119 441.5,237.5C 438.833,236.833 436.167,236.167 433.5,235.5C 433.5,232.167 433.5,228.833 433.5,225.5 Z"/></g>
<g><path style="opacity:1" fill="#af5833" d="M 462.5,240.5 C 461.241,243.366 460.241,246.366 459.5,249.5C 458.5,249.5 457.5,249.5 456.5,249.5C 453.769,246.073 452.769,242.073 453.5,237.5C 453.968,233.869 453.301,230.535 451.5,227.5C 453.326,223.504 456.326,222.504 460.5,224.5C 461.767,226.88 461.434,229.046 459.5,231C 460.607,234.154 461.607,237.32 462.5,240.5 Z"/></g>
<g><path style="opacity:0.604" fill="#d6be77" d="M 330.5,239.5 C 333.109,240.443 335.109,242.11 336.5,244.5C 333.865,243.527 331.865,241.86 330.5,239.5 Z"/></g>
<g><path style="opacity:1" fill="#da9b34" d="M 158.5,249.5 C 159.452,250.452 160.452,251.452 161.5,252.5C 163.255,257.006 165.255,261.339 167.5,265.5C 166.292,266.234 164.959,266.567 163.5,266.5C 164.059,270.853 164.725,275.186 165.5,279.5C 161.557,280.486 157.557,281.152 153.5,281.5C 153.041,278.123 152.374,274.789 151.5,271.5C 133.258,274.888 122.925,267.555 120.5,249.5C 127.281,247.763 134.114,246.097 141,244.5C 142.884,246.45 144.218,248.784 145,251.5C 150.149,255.782 154.649,255.115 158.5,249.5 Z"/></g>
<g><path style="opacity:0.788" fill="#d8be77" d="M 336.5,244.5 C 339.903,246.9 342.57,249.9 344.5,253.5C 341.097,251.1 338.43,248.1 336.5,244.5 Z"/></g>
<g><path style="opacity:1" fill="#e7bf6d" d="M 43.5,239.5 C 44.7264,242.672 46.3931,245.672 48.5,248.5C 47.954,249.772 47.6207,251.106 47.5,252.5C 48.1705,255.846 48.8372,259.179 49.5,262.5C 45.9957,255.346 43.9957,247.679 43.5,239.5 Z"/></g>
<g><path style="opacity:1" fill="#dfa64b" d="M 165.5,226.5 C 165.088,228.973 166.088,230.306 168.5,230.5C 184.386,256.918 199.719,283.751 214.5,311C 214.252,312.749 213.252,313.582 211.5,313.5C 208.911,313.461 206.911,314.461 205.5,316.5C 201.213,317.232 197.213,318.565 193.5,320.5C 192.791,321.404 191.791,321.737 190.5,321.5C 190.167,321.5 189.833,321.5 189.5,321.5C 192.029,319.735 194.362,317.735 196.5,315.5C 195.61,311.02 193.277,307.686 189.5,305.5C 190.303,304.577 190.47,303.577 190,302.5C 187.72,300.386 185.887,298.053 184.5,295.5C 184.657,294.127 184.49,292.793 184,291.5C 178.675,283.526 173.842,275.193 169.5,266.5C 169.043,265.702 168.376,265.369 167.5,265.5C 165.255,261.339 163.255,257.006 161.5,252.5C 160.452,251.452 159.452,250.452 158.5,249.5C 157.35,245.657 155.683,241.99 153.5,238.5C 152.398,237.824 151.398,237.158 150.5,236.5C 150.938,236.565 151.272,236.399 151.5,236C 149.529,233.135 148.863,230.135 149.5,227C 154.823,226.501 160.156,226.334 165.5,226.5 Z"/></g>
<g><path style="opacity:1" fill="#febd55" d="M 310.5,251.5 C 331.186,264.861 342.186,283.861 343.5,308.5C 333.833,308.5 324.167,308.5 314.5,308.5C 314.191,294.853 307.191,287.187 293.5,285.5C 292.602,284.842 291.602,284.176 290.5,283.5C 296.333,273.167 302.167,262.833 308,252.5C 308.671,251.748 309.504,251.414 310.5,251.5 Z"/></g>
<g><path style="opacity:1" fill="#797979" d="M 457.5,253.5 C 458.5,253.5 459.5,253.5 460.5,253.5C 460.5,254.833 460.5,256.167 460.5,257.5C 459.167,257.5 457.833,257.5 456.5,257.5C 456.433,256.041 456.766,254.708 457.5,253.5 Z"/></g>
<g><path style="opacity:1" fill="#9ea29c" d="M 382.5,262.5 C 383.451,263.919 383.784,265.585 383.5,267.5C 380.5,267.5 377.5,267.5 374.5,267.5C 374.5,268.5 374.5,269.5 374.5,270.5C 374.672,271.492 374.338,272.158 373.5,272.5C 373.5,270.5 373.5,268.5 373.5,266.5C 376.5,266.5 379.5,266.5 382.5,266.5C 382.5,265.167 382.5,263.833 382.5,262.5 Z"/></g>
<g><path style="opacity:0.494" fill="#d7be78" d="M 49.5,263.5 C 52.68,268.527 55.3467,273.86 57.5,279.5C 53.7985,274.764 51.1318,269.43 49.5,263.5 Z"/></g>
<g><path style="opacity:1" fill="#da9b34" d="M 315.5,243.5 C 339.437,258.356 351.771,280.023 352.5,308.5C 349.5,308.5 346.5,308.5 343.5,308.5C 342.186,283.861 331.186,264.861 310.5,251.5C 309.697,250.577 309.53,249.577 310,248.5C 311.076,245.921 312.909,244.254 315.5,243.5 Z"/></g>
<g><path style="opacity:1" fill="#e7dbc5" d="M 383.5,267.5 C 385.203,273.771 382.869,276.771 376.5,276.5C 377.287,274.896 378.62,274.229 380.5,274.5C 380.5,272.833 380.5,271.167 380.5,269.5C 378.379,269.325 376.379,269.659 374.5,270.5C 374.5,269.5 374.5,268.5 374.5,267.5C 377.5,267.5 380.5,267.5 383.5,267.5 Z"/></g>
<g><path style="opacity:0.871" fill="#debf73" d="M 356.5,272.5 C 359.14,277.085 360.806,282.085 361.5,287.5C 359.023,282.854 357.356,277.854 356.5,272.5 Z"/></g>
<g><path style="opacity:0.671" fill="#dbbf75" d="M 57.5,279.5 C 61.221,283.255 64.221,287.588 66.5,292.5C 62.3375,288.999 59.3375,284.665 57.5,279.5 Z"/></g>
<g><path style="opacity:1" fill="#da9b34" d="M 293.5,285.5 C 307.191,287.187 314.191,294.853 314.5,308.5C 301.833,308.5 289.167,308.5 276.5,308.5C 279.813,301.207 283.646,294.207 288,287.5C 289.444,285.845 291.278,285.178 293.5,285.5 Z"/></g>
<g><path style="opacity:0.198" fill="#a6c2b4" d="M 370.5,279.5 C 370.666,288.173 370.5,296.84 370,305.5C 369.583,306.756 368.75,307.423 367.5,307.5C 367.987,306.527 368.487,305.527 369,304.5C 369.171,295.99 369.671,287.657 370.5,279.5 Z"/></g>
<g><path style="opacity:0.38" fill="#dfc996" d="M 361.5,287.5 C 363.99,293.463 364.99,299.796 364.5,306.5C 364.5,307.5 364.5,308.5 364.5,309.5C 329.167,309.5 293.833,309.5 258.5,309.5C 258.5,309.167 258.5,308.833 258.5,308.5C 264.5,308.5 270.5,308.5 276.5,308.5C 289.167,308.5 301.833,308.5 314.5,308.5C 324.167,308.5 333.833,308.5 343.5,308.5C 346.5,308.5 349.5,308.5 352.5,308.5C 356.167,308.5 359.833,308.5 363.5,308.5C 363.396,301.441 362.729,294.441 361.5,287.5 Z"/></g>
<g><path style="opacity:0.02" fill="#c6bb82" d="M 68.5,294.5 C 69.9063,294.973 70.573,295.973 70.5,297.5C 69.0937,297.027 68.427,296.027 68.5,294.5 Z"/></g>
<g><path style="opacity:0.706" fill="#d0bc79" d="M 70.5,297.5 C 73.4274,298.757 75.7607,300.757 77.5,303.5C 74.5726,302.243 72.2393,300.243 70.5,297.5 Z"/></g>
<g><path style="opacity:1" fill="#f2f2ef" d="M 376.5,276.5 C 376.443,277.609 376.11,278.609 375.5,279.5C 374.671,286.655 374.171,293.989 374,301.5C 372.997,305.795 371.497,309.128 369.5,311.5C 330.858,312.815 292.191,312.815 253.5,311.5C 255.139,310.678 256.805,310.011 258.5,309.5C 293.833,309.5 329.167,309.5 364.5,309.5C 364.5,308.5 364.5,307.5 364.5,306.5C 365.391,307.11 366.391,307.443 367.5,307.5C 368.75,307.423 369.583,306.756 370,305.5C 370.5,296.84 370.666,288.173 370.5,279.5C 370.707,276.759 371.707,274.426 373.5,272.5C 374.338,272.158 374.672,271.492 374.5,270.5C 376.379,269.659 378.379,269.325 380.5,269.5C 380.5,271.167 380.5,272.833 380.5,274.5C 378.62,274.229 377.287,274.896 376.5,276.5 Z"/></g>
<g><path style="opacity:0.808" fill="#d0e0d9" d="M 375.5,279.5 C 375.666,288.173 375.5,296.84 375,305.5C 372.451,312.193 367.617,314.86 360.5,313.5C 354.5,313.5 348.5,313.5 342.5,313.5C 323.451,314.797 304.451,314.797 285.5,313.5C 278.5,313.5 271.5,313.5 264.5,313.5C 261.962,313.507 259.462,313.841 257,314.5C 255.105,314.385 253.438,313.718 252,312.5C 251.493,311.004 251.993,309.837 253.5,309C 255.452,308.634 257.118,307.801 258.5,306.5C 258.5,307.167 258.5,307.833 258.5,308.5C 258.5,308.833 258.5,309.167 258.5,309.5C 256.805,310.011 255.139,310.678 253.5,311.5C 292.191,312.815 330.858,312.815 369.5,311.5C 371.497,309.128 372.997,305.795 374,301.5C 374.171,293.989 374.671,286.655 375.5,279.5 Z"/></g>
<g><path style="opacity:0.514" fill="#9db7ab" d="M 264.5,313.5 C 271.5,313.5 278.5,313.5 285.5,313.5C 283.469,313.972 281.802,314.972 280.5,316.5C 276.763,313.923 273.097,313.923 269.5,316.5C 268.198,314.972 266.531,313.972 264.5,313.5 Z"/></g>
<g><path style="opacity:0.059" fill="#9bb7ab" d="M 342.5,313.5 C 348.5,313.5 354.5,313.5 360.5,313.5C 359.449,314.222 358.782,315.222 358.5,316.5C 354.763,313.923 351.097,313.923 347.5,316.5C 346.198,314.972 344.531,313.972 342.5,313.5 Z"/></g>
<g><path style="opacity:0.204" fill="#beaf75" d="M 211.5,313.5 C 209.967,315.245 207.967,316.245 205.5,316.5C 206.911,314.461 208.911,313.461 211.5,313.5 Z"/></g>
<g><path style="opacity:1" fill="#464a47" d="M 280.5,316.5 C 283.903,322.703 282.07,326.703 275,328.5C 267.93,326.703 266.097,322.703 269.5,316.5C 273.097,313.923 276.763,313.923 280.5,316.5 Z"/></g>
<g><path style="opacity:0.439" fill="#c3ae6e" d="M 205.5,316.5 C 201.902,318.74 197.902,320.074 193.5,320.5C 197.213,318.565 201.213,317.232 205.5,316.5 Z"/></g>
<g><path style="opacity:1" fill="#474b49" d="M 358.5,316.5 C 361.893,322.722 360.06,326.722 353,328.5C 345.93,326.703 344.097,322.703 347.5,316.5C 351.097,313.923 354.763,313.923 358.5,316.5 Z"/></g>
<g><path style="opacity:1" fill="#eaebeb" d="M 272.5,318.5 C 277.159,318.015 278.492,319.848 276.5,324C 272.272,324.272 270.938,322.438 272.5,318.5 Z"/></g>
<g><path style="opacity:0.973" fill="#eeefef" d="M 350.5,318.5 C 355.159,318.015 356.492,319.848 354.5,324C 353.216,324.684 352.049,324.517 351,323.5C 350.506,321.866 350.34,320.199 350.5,318.5 Z"/></g>
<g><path style="opacity:0.675" fill="#d3bb76" d="M 116.5,325.5 C 119.152,325.41 121.485,326.076 123.5,327.5C 120.848,327.59 118.515,326.924 116.5,325.5 Z"/></g>
<g><path style="opacity:0.569" fill="#d8ba70" d="M 189.5,321.5 C 189.833,321.5 190.167,321.5 190.5,321.5C 182.431,324.407 174.097,326.74 165.5,328.5C 167.364,326.782 169.697,325.615 172.5,325C 178.212,323.988 183.879,322.821 189.5,321.5 Z"/></g>
<g><path style="opacity:0.898" fill="#e1bd6f" d="M 124.5,327.5 C 137.15,328.293 149.817,328.626 162.5,328.5C 149.758,331.348 137.091,331.015 124.5,327.5 Z"/></g>
</svg>
